<?xml version="1.0" standalone="no"?>
<!DOCTYPE svg PUBLIC "-//W3C//DTD SVG 20010904//EN"
 "http://www.w3.org/TR/2001/REC-SVG-20010904/DTD/svg10.dtd">

<svg version="1.1" xmlns="http://www.w3.org/2000/svg"
 width="57.000000pt" height="45.000000pt" viewBox="0 0 1108.000000 80.000000"
 preserveAspectRatio="">
 <style type="text/css">
 	<defs>
		 <style>	
		 		
		 		@keyframes slideDown {
			 		from {	
			 			opacity: 0;
						visibility: hidden;		 						
			 			transform: translateY(+4000px);
		 			}
		 			100% {
		 				opacity: 1;
		 				visibility: visible;
		 				transform: translateY(0px);
		 			}

		 		}
		 		.bricks{
		 				visibility: hidden;	
		 		}

		 		#brick1{		 			
		 			animation: slideDown .5s forwards;
		 		}#brick2{
		 			animation: slideDown .5s .1s forwards;	
		 		}#brick3{
		 			animation: slideDown .5s .9s forwards;	
		 		}#brick4{
		 			animation: slideDown .5s .2s forwards;	
		 		}#brick5{
		 			animation: slideDown .5s .8s forwards;	
		 		}#brick6{
		 			animation: slideDown .5s .3s forwards;	
		 		}#brick7{
		 			animation: slideDown .5s .7s forwards;			 		
		 		}#brick8{
		 			animation: slideDown .5s .4s forwards;	
		 		}#brick9{
		 			animation: slideDown .5s .6s forwards;
		 		}

		 		#brick10{
		 			animation: slideDown 0.5s .9s forwards;
		 		}#brick11{
		 			animation: slideDown 0.5s .1s forwards;	
		 		}#brick12{
		 			animation: slideDown 0.5s .3s forwards;	
		 		}#brick13{
		 			animation: slideDown 0.5s .2s forwards;	
		 		}#brick14{
		 			animation: slideDown 0.5s .3s forwards;	
		 		}#brick15{
		 			animation: slideDown 0.5s .4s forwards;	
		 		}#brick16{
		 			animation: slideDown 0.5s .5s forwards;	
		 		}#brick17{
		 			animation: slideDown 0.5s .6s forwards;	
		 		}#brick18{
		 			animation: slideDown 0.5s .7s forwards;	
		 		}#brick19{
		 			animation: slideDown 0.5s .8s forwards;	
		 		}#brick20{
		 			animation: slideDown 0.5s .9s forwards;
		 			
		 		
		 		}#brick21{
		 			animation: slideDown 0.5s 1s forwards;	
		 		}#brick22{
		 			animation: slideDown 0.5s 1.1s forwards;	
		 		}#brick23{
		 			animation: slideDown 0.5s 1.2s forwards;	
		 		}#brick24{
		 			animation: slideDown 0.5s 1.3s forwards;	
		 		}#brick25{
		 			animation: slideDown 0.5s 1.4s forwards;	
		 		}#brick26{
		 			animation: slideDown 0.5s 1.5s forwards;	
		 		}#brick27{
		 			animation: slideDown 0.5s 1.6s forwards;	
		 		}#brick28{
		 			animation: slideDown 0.5s 1.7s forwards;	
		 		}#brick29{
		 			animation: slideDown 0.5s 1.8s forwards;	
		 		}

		 		#brick30{
		 			animation: slideDown 0.5s 1.9s forwards;	
		 		}#brick31{
		 			animation: slideDown 0.5s 1s forwards;	
		 		}#brick32{
					animation: slideDown 0.5s 1.1s forwards;	
		 		}#brick33{
		 			animation: slideDown 0.5s 1.2s forwards;	
		 		}#brick34{
		 			animation: slideDown 0.5s 1.3s forwards;	
		 		}#brick35{
		 			animation: slideDown 0.5s 1.4s forwards;	
		 		}#brick36{
		 			animation: slideDown 0.5s 1.5s forwards;	
		 		}#brick37{
		 			animation: slideDown 0.5s 1.6s forwards;	
		 		}#brick38{
		 			animation: slideDown 0.5s 1.7s forwards;	
		 		}#brick39{
		 			animation: slideDown 0.5s 1.8s forwards;	
		 		}
		 		#brick40{
		 			animation: slideDown 0.5s 2.9s forwards;	
		 		}#brick41{
		 			animation: slideDown 0.5s 2s forwards;	
		 		}#brick42{
		 			animation: slideDown 0.5s 2.1s forwards;	
		 		}#brick43{
		 			animation: slideDown 0.5s 2.2s forwards;	
		 		}#brick44{
		 			animation: slideDown 0.5s 2.3s forwards;	
		 		}#brick45{
		 			animation: slideDown 0.5s 2.4s forwards;	
		 		}#brick46{
		 			animation: slideDown 0.5s 2.5s forwards;	
		 		}#brick47{
		 			animation: slideDown 0.5s 2.6s forwards;	
		 		}#brick48{
		 			animation: slideDown 0.5s 2.7s forwards;	
		 		}#brick49{
		 			animation: slideDown 0.5s 2.8s forwards;	
		 		}
		 		
		 		#brick50{
		 			animation: slideDown 0.5s 2.9s forwards;	
		 		}#brick51{
		 			animation: slideDown 0.5s 2s forwards;	
		 		}#brick52{
		 			animation: slideDown 0.5s 2.1s forwards;	
		 		}#brick53{
		 			animation: slideDown 0.5s 2.2s forwards;	
		 		}#brick54{
		 			animation: slideDown 0.5s 2.3s forwards;	
		 		}#brick55{
		 			animation: slideDown 0.5s 2.4s forwards;	
		 		}#brick56{
		 			animation: slideDown 0.5s 2.5s forwards;	
		 		}#brick57{
		 			animation: slideDown 0.5s 2.6s forwards;	
		 		}#brick58{
		 			animation: slideDown 0.5s 2.7s forwards;	
		 		}#brick59{
		 			animation: slideDown 0.5s 2.8s forwards;	
		 		}

		 		#brick60{
		 			animation: slideDown 0.5s 2.9s forwards;	
		 		}#brick61{
		 			animation: slideDown 0.5s 2.3s forwards;	
		 		}#brick62{
		 			animation: slideDown 0.5s 2.1s forwards;	
		 		}#brick63{
		 			animation: slideDown 0.5s 2.2s forwards;	
		 		}#brick64{
		 			animation: slideDown 0.5s 2.3s forwards;	
		 		}#brick65{
		 			animation: slideDown 0.5s 2.4s forwards;	
		 		}#brick66{
		 			animation: slideDown 0.5s 2.5s forwards;	
		 		}#brick67{
		 			animation: slideDown 0.5s 2.6s forwards;	
		 		}#brick68{
		 			animation: slideDown 0.5s 2.7s forwards;	
		 		}#brick69{
		 			animation: slideDown 0.5s 2.8s forwards;	
		 		}
		 		#brick70{
		 			animation: slideDown 0.5s 2.9s forwards;	
		 		}#brick71{
		 			animation: slideDown 0.5s 3s forwards;	
		 		}#brick72{
		 			animation: slideDown 0.5s 3.1s forwards;	
		 		}#brick73{
		 			animation: slideDown 0.5s 3.2s forwards;	
		 		}#brick74{
		 			animation: slideDown 0.5s 3.3s forwards;	
		 		}#brick75{
		 			animation: slideDown 0.5s 3.4s forwards;	
		 		}#brick76{
		 			animation: slideDown 0.5s 3.5s forwards;	
		 		}#brick77{
		 			animation: slideDown 0.5s 3.6s forwards;	
		 		}#brick78{
		 			animation: slideDown 0.5s 3.7s forwards;	
		 		}#brick79{
		 			animation: slideDown 0.5s 3.8s forwards;	
		 		}
		 		#brick80{
		 			animation: slideDown 0.5s 3.9s forwards;	
		 		}#brick81{
		 			animation: slideDown 0.5s 3s forwards;	
		 		}#brick82{
		 			animation: slideDown 0.5s 3.1s forwards;	
		 		}#brick83{
		 			animation: slideDown 0.5s 3.2s forwards;	
		 		}#brick84{
		 			animation: slideDown 0.5s 3.3s forwards;	
		 		}#brick85{
		 			animation: slideDown 0.5s 3.4s forwards;	
		 		}#brick86{
		 			animation: slideDown 0.5s 3.5s forwards;	
		 		}#brick87{
		 			animation: slideDown 0.5s 3.6s forwards;	
		 		}#brick88{
		 			animation: slideDown 0.5s 3.7s forwards;	
		 		}#brick89{
		 			animation: slideDown 0.5s 3.8s forwards;	
		 		}
		 		#brick90{
		 			animation: slideDown 0.5s 3.9s forwards;	
		 		}#brick91{
		 			animation: slideDown 0.5s 3s forwards;	
		 		}#brick92{
		 			animation: slideDown 0.5s 3.1s forwards;	
		 		}#brick93{
		 			animation: slideDown 0.5s 3.2s forwards;	
		 		}#brick94{
		 			animation: slideDown 0.5s 3.3s forwards;	
		 		}#brick95{
		 			animation: slideDown 0.5s 3.4s forwards;	
		 		}#brick96{
		 			animation: slideDown 0.5s 3.5s forwards;	
		 		}#brick97{
		 			animation: slideDown 0.5s 3.6s forwards;	
		 		}#brick98{
		 			animation: slideDown 0.5s 3.7s forwards;	
		 		}#brick99{
		 			animation: slideDown 0.5s 3.8s forwards;	
		 	 	}
		 		#brick100{
		 			animation: slideDown 0.5s 4.9s forwards;	
		 		}#brick101{
		 			animation: slideDown 0.5s 4s forwards;	
		 		}#brick102{
		 			animation: slideDown 0.5s 4.1s forwards;	
		 		}#brick103{
		 			animation: slideDown 0.5s 4.2s forwards;	
		 		}#brick104{
		 			animation: slideDown 0.5s 4.3s forwards;	
		 		}#brick105{
		 			animation: slideDown 0.5s 4.4s forwards;	
		 		}#brick106{
		 			animation: slideDown 0.5s 4.5s forwards;	
		 		}#brick107{
		 			animation: slideDown 0.5s 4.6s forwards;	
		 		}#brick108{
		 			animation: slideDown 0.5s 4.7s forwards;	
		 		}#brick109{
		 			animation: slideDown 0.5s 4.8s forwards;	
		 		}
		 		#brick110{
		 			animation: slideDown 0.5s 4.9s forwards;	
		 		}#brick111{
		 			animation: slideDown 0.5s  4s forwards;	
		 		}#brick112{
		 			animation: slideDown 0.5s 4.1s forwards;	
		 		}#brick113{
		 			animation: slideDown 0.5s 4.2s forwards;	
		 		}#brick114{
		 			animation: slideDown 0.5s 4.3s forwards;	
		 		}#brick115{
		 			animation: slideDown 0.5s 4.4s forwards;	
		 		}#brick116{
		 			animation: slideDown 0.5s 4.5s forwards;	
		 		}#brick117{
		 			animation: slideDown 0.5s 4.6s forwards;	
		 		}#brick118{
		 			animation: slideDown 0.5s 4.7s forwards;	
		 		}#brick119{
		 			animation: slideDown 0.5s 4.8s forwards;	
		 		}
		 		#brick120{
		 			animation: slideDown 0.5s 4.9s forwards;	
		 		}#brick121{
		 			animation: slideDown 0.5s 4.2s forwards;	
		 		}#brick122{
		 			animation: slideDown 0.5s 4.1s forwards;	
		 		}#brick123{
		 			animation: slideDown 0.5s 4.2s forwards;	
		 		}#brick124{
		 			animation: slideDown 0.5s 4.3s forwards;	
		 		}#brick125{
		 			animation: slideDown 0.5s 4.4s forwards;	
		 		}#brick126{
		 			animation: slideDown 0.5s 4.5s forwards;	
		 		}#brick127{
		 			animation: slideDown 0.5s 4.6s forwards;	
		 		}#brick128{
		 			animation: slideDown 0.5s 4.7s forwards;	
		 		}#brick129{
		 			animation: slideDown 0.5s 1.8s forwards;	
		 		}
		 		.roof{
		 			
		 			animation: slideDown 1s 5s forwards; 
		 		}
		 		.window{
		 			
		 			animation: slideDown 1s 5.3s forwards; 
		 		}
		 		
		 	</style>
	</defs>
</style>	 	
<g transform="translate(0.000000,480.000000) scale(0.100000,-0.100000)"
fill="#14438F" stroke="none">
<g class="bricks">	
	<path class="roof" d="M5195 8366 c-510 -340 -1568 -1042 -1980 -1314 -524 -347 -1052 -697
	-1705 -1130 -344 -228 -670 -445 -725 -481 l-100 -66 644 -3 643 -2 47 33 c25
	19 125 87 221 152 222 151 375 254 470 320 41 29 170 116 285 195 116 78 298
	202 405 275 107 73 265 180 350 238 85 59 265 181 400 272 135 92 295 201 355
	242 61 42 198 136 305 208 195 133 374 255 653 445 l147 101 84 -53 c80 -50
	302 -195 576 -373 69 -45 249 -162 400 -260 151 -98 347 -225 435 -282 343
	-224 398 -259 639 -416 138 -89 312 -202 388 -252 76 -49 179 -117 230 -149
	51 -33 201 -130 333 -216 132 -86 278 -181 325 -211 46 -30 159 -102 250 -161
	l165 -108 674 0 c371 0 671 4 666 8 -13 12 -68 46 -450 287 -181 114 -352 222
	-380 240 -27 18 -131 83 -230 145 -99 62 -223 140 -275 173 -52 33 -128 81
	-168 106 -196 124 -513 324 -647 409 -82 52 -172 109 -200 127 -27 18 -129 82
	-225 142 -186 117 -302 190 -1065 672 -264 167 -559 353 -655 414 -96 60 -197
	124 -225 142 -27 17 -156 98 -285 180 -129 81 -258 163 -287 182 -28 18 -57
	35 -65 37 -7 3 -197 -118 -423 -268z m482 138 c84 -52 380 -238 1013 -639 542
	-343 939 -594 1040 -657 58 -36 148 -93 200 -126 52 -34 131 -83 175 -111 44
	-27 215 -135 380 -240 165 -104 397 -251 515 -325 118 -75 289 -183 380 -240
	91 -58 194 -123 230 -145 36 -22 121 -76 190 -120 69 -44 150 -95 180 -114 30
	-19 163 -102 294 -185 l239 -152 -527 0 -526 0 -188 122 c-103 67 -230 149
	-282 183 -52 34 -133 87 -180 117 -219 142 -803 521 -985 640 -164 107 -457
	297 -630 408 -60 39 -231 150 -380 247 -148 97 -315 205 -370 240 -55 35 -146
	94 -202 131 -57 37 -196 127 -310 201 -115 74 -233 151 -264 172 l-57 38 -363
	-247 c-367 -249 -565 -384 -739 -503 -132 -91 -320 -219 -485 -331 -77 -52
	-216 -147 -310 -211 -93 -64 -233 -159 -310 -211 -77 -52 -201 -136 -275 -186
	-74 -51 -211 -145 -305 -208 -93 -64 -190 -130 -215 -147 -25 -17 -185 -127
	-356 -243 l-312 -212 -498 0 -499 0 515 342 c283 188 713 473 955 633 608 403
	1252 830 1825 1210 1211 803 1365 905 1372 905 4 0 33 -16 65 -36z"/>
</g>	
<path id='ground' d="M0 4570 l0 -280 854 0 855 0 338 -223 c186 -123 457 -302 603 -399
374 -247 764 -505 1050 -693 475 -313 845 -558 1605 -1060 110 -73 362 -239
560 -369 198 -131 493 -325 655 -433 162 -107 512 -338 778 -514 l483 -319
1649 0 1650 0 0 255 0 255 -1503 0 -1503 0 -184 123 c-192 126 -566 373 -1035
682 -148 98 -403 266 -565 373 -162 107 -394 260 -515 340 -121 80 -332 220
-470 310 -137 91 -383 253 -545 360 -162 107 -385 254 -495 327 -195 128 -343
226 -1000 660 -176 116 -432 285 -570 376 -137 90 -367 242 -510 336 l-260
173 -962 0 -963 0 0 -280z"/>
<path class='bricks window' d="M5475 6716 c-120 -82 -795 -536 -1315 -884 -151 -101 -279 -188 -284
-193 -6 -5 707 -9 1760 -9 l1769 0 -35 22 c-19 12 -138 90 -265 173 -269 177
-464 305 -665 437 -80 52 -251 164 -380 250 -413 272 -438 288 -452 287 -7 0
-67 -38 -133 -83z m331 -182 c98 -65 276 -181 394 -259 351 -231 661 -435 722
-474 31 -20 57 -39 57 -43 1 -5 -609 -8 -1354 -8 -897 0 -1355 3 -1355 10 0 6
4 10 8 10 10 0 14 3 492 325 179 121 440 297 580 391 140 95 260 171 266 169
6 -2 91 -56 190 -121z"/>

<g class="bricks">
<path id='brick124' d="M5479 7519 l-133 -89 274 0 274 0 -50 31 c-27 18 -90 58 -141 89
l-91 58 -133 -89z"/>
<path id='brick123' d="M5106 7265 l-179 -120 357 -3 c197 -1 516 -1 709 0 l352 3 -35 21
c-19 12 -105 65 -190 119 l-154 98 -341 1 -340 1 -179 -120z"/>
<path id='brick122' d="M4810 7067 c-25 -18 -103 -72 -173 -120 l-129 -87 380 0 381 0 0 120
1 120 -208 0 -207 0 -45 -33z"/>
<path id='brick121' d="M5310 6980 l0 -120 410 0 411 0 -3 118 -3 117 -407 3 -408 2 0 -120z"/>
<path id='brick120' d="M6170 6980 l0 -120 307 0 c169 0 303 4 297 8 -5 5 -88 59 -185 120
l-175 112 -122 0 -122 0 0 -120z"/>
<path id='brick119' d="M4410 6796 c-8 -7 -80 -57 -160 -111 -80 -54 -149 -102 -154 -106 -6
-5 152 -9 362 -9 l372 0 0 120 0 120 -203 0 c-158 0 -206 -3 -217 -14z"/>
<path id='brick118' d="M4870 6690 l0 -120 158 0 157 0 169 114 c92 63 170 117 174 120 3 3
-144 6 -326 6 l-332 0 0 -120z"/>
<path id='brick117' d="M5730 6802 c0 -19 33 -46 170 -136 l145 -96 253 0 252 0 0 120 0 120
-410 0 c-225 0 -410 -4 -410 -8z"/>
<path id='brick116' d="M6590 6690 l0 -120 328 0 327 0 -35 22 c-19 12 -60 38 -90 57 -30 19
-100 63 -155 98 l-100 63 -137 0 -138 0 0 -120z"/>

<path id='brick115' d="M3900 6449 c-63 -44 -141 -97 -172 -117 -32 -20 -58 -40 -58 -44 0
-5 167 -8 370 -8 l370 0 0 125 0 125 -197 -1 -198 0 -115 -80z"/>
<path id='brick114' d="M4450 6406 l0 -125 153 0 152 0 184 125 185 124 -337 0 -337 0 0
-124z"/>
<path id='brick113' d="M6170 6510 c0 -15 37 -45 143 -114 78 -51 152 -98 164 -105 16 -8 94
-11 265 -9 l243 3 3 123 3 122 -411 0 c-405 0 -410 0 -410 -20z"/>
<path id='brick112' d="M7032 6408 l3 -123 328 -2 c180 -1 327 -1 327 1 0 2 -53 37 -117 77
-65 40 -151 95 -192 121 l-74 48 -139 0 -139 0 3 -122z"/>
<path id='brick111' d="M3429 6129 c-90 -61 -168 -115 -173 -120 -6 -5 139 -9 352 -9 l362 0
0 120 0 120 -188 0 -189 0 -164 -111z"/>
<path id='brick110' d="M4017 6233 c-3 -5 -5 -59 -4 -120 l0 -113 161 0 161 0 180 120 180
120 -337 0 c-185 0 -339 -3 -341 -7z"/>
<path id='brick109' d="M6590 6227 c0 -8 73 -62 161 -120 l161 -107 249 0 249 0 0 120 0 120
-410 0 c-335 0 -410 -2 -410 -13z"/>
<path id='brick108' d="M7450 6120 l0 -120 342 0 c188 0 338 3 334 8 -4 4 -36 25 -71 47 -35
22 -116 73 -179 113 l-115 72 -155 0 -156 0 0 -120z"/>
<path id='brick107' d="M3003 5842 c-95 -64 -172 -119 -173 -122 0 -3 161 -4 357 -2 l358 3
3 119 3 120 -188 0 -188 -1 -172 -117z"/>
<path id='brick106' d="M3590 5841 c0 -86 3 -120 13 -123 6 -2 80 -3 164 -2 l151 2 169 113
c92 62 172 116 177 121 6 4 -144 8 -332 8 l-342 0 0 -119z"/>
<path id='brick105' d="M7030 5942 c0 -12 52 -52 156 -120 l156 -103 231 0 c128 0 240 1 250
1 15 0 17 12 17 120 l0 120 -405 0 c-382 0 -405 -1 -405 -18z"/>
<path id='brick104' d="M7885 5846 c0 -63 3 -118 7 -122 6 -5 688 -13 688 -8 0 2 -112 74
-281 182 l-96 62 -159 0 -160 0 1 -114z"/>
<path id='brick103' d="M2698 5635 c-26 -19 -105 -73 -175 -120 l-127 -85 357 0 357 0 0 120
0 120 -182 0 -183 0 -47 -35z"/>
<path id='brick102' d="M3160 5550 l0 -120 405 0 405 0 0 80 0 79 -117 3 -118 3 55 38 55 37
-343 0 -342 0 0 -120z"/>
<path id='brick101' d="M7452 5658 c3 -7 22 -24 43 -38 l38 -25 -42 -3 -41 -3 0 -80 0 -79
410 0 410 0 0 120 0 120 -411 0 c-324 0 -410 -3 -407 -12z"/>
<path id='brick100' d="M8310 5550 l0 -120 362 0 361 0 -49 32 c-125 81 -184 119 -252 162
l-73 46 -174 0 -175 0 0 -120z"/>
<path id='brick99' d="M4019 5588 c0 -2 -3 -38 -5 -80 l-5 -78 411 0 410 0 0 80 0 80 -405
0 c-223 0 -405 -1 -406 -2z"/>
<path id='brick98' d="M4876 5568 c-8 -30 -8 -102 0 -122 5 -14 51 -16 410 -16 l404 0 0 80
0 80 -404 0 -404 0 -6 -22z"/>
<path id='brick97' d="M5732 5529 c-5 -109 -48 -99 414 -99 l404 0 0 80 0 80 -408 0 -408 0
-2 -61z"/>
<path id='brick96' d="M6590 5510 l0 -80 410 0 410 0 0 80 0 80 -410 0 -410 0 0 -80z"/>
<path id='brick95' d="M2163 5272 c-95 -64 -172 -120 -173 -123 0 -3 156 -6 348 -5 l347 1
3 123 3 122 -178 -1 -178 0 -172 -117z"/>
<path id='brick94' d="M2730 5265 l0 -125 410 0 410 0 0 125 0 125 -410 0 -410 0 0 -125z"/>
<path id='brick93' d="M3592 5268 l3 -123 405 0 405 0 3 123 3 122 -411 0 -411 0 3 -122z"/>
<path id='brick92' d="M4452 5268 l3 -123 393 -2 c216 -1 399 0 407 3 10 4 13 32 12 122
l-2 117 -408 3 -408 2 3 -122z"/>
<path id='brick91' d="M5312 5268 l3 -123 405 0 405 0 3 100 c2 55 0 110 -3 123 l-5 22
-405 0 -406 0 3 -122z"/>
<path id='brick90' d="M6170 5265 l0 -125 408 2 407 3 3 123 3 122 -411 0 -410 0 0 -125z"/>
<path id='brick89' d="M7032 5268 l3 -123 403 -2 402 -2 0 124 0 125 -405 0 -406 0 3 -122z"/>
<path id='brick88' d="M7885 5277 c0 -61 4 -118 8 -125 7 -10 92 -12 393 -12 212 1 391 3
399 7 12 4 15 29 15 124 l0 119 -407 0 -408 0 0 -113z"/>
<path id='brick87' d="M8743 5268 l2 -123 363 -2 c199 -2 362 0 362 2 0 5 -79 58 -302 202
l-67 43 -180 0 -181 0 3 -122z"/>
<path id='brick86' d="M1941 5096 c2 -2 82 -56 176 -120 l173 -116 410 0 410 0 0 120 0 120
-587 0 c-322 0 -584 -2 -582 -4z"/>
<path id='brick85' d="M3160 4980 l0 -120 405 0 405 0 0 120 0 120 -405 0 -405 0 0 -120z"/>
<path id='brick84' d="M4014 5087 c-2 -7 -3 -60 -2 -118 l3 -104 408 -3 407 -2 0 120 0 120
-405 0 c-326 0 -407 -3 -411 -13z"/>
<path id='brick83' d="M4877 5093 c-4 -3 -7 -57 -7 -120 l0 -113 410 0 410 0 0 120 0 120
-403 0 c-222 0 -407 -3 -410 -7z"/>
<path id='brick82' d="M5734 5087 c-2 -7 -3 -60 -2 -118 l3 -104 408 -3 407 -2 0 120 0 120
-405 0 c-326 0 -407 -3 -411 -13z"/>
<path id='brick81' d="M6590 4980 l0 -120 410 0 410 0 0 120 0 120 -410 0 -410 0 0 -120z"/>
<path id='brick80' d="M7450 4980 l0 -120 410 0 410 0 0 120 0 120 -410 0 -410 0 0 -120z"/>
<path id='brick79' d="M8310 4980 l0 -120 410 0 410 0 0 120 0 120 -410 0 -410 0 0 -120z"/>
<path id='brick78' d="M9170 4980 l0 -120 185 0 185 0 0 120 0 120 -185 0 -185 0 0 -120z"/>

<path id='brick77' d="M2370 4811 c1 -5 292 -202 312 -209 4 -2 8 46 8 108 l0 111 -160 -2
c-88 -1 -160 -5 -160 -8z"/>
<path id='brick76' d="M2730 4693 l0 -123 410 0 410 0 0 125 0 125 -410 -2 -410 -1 0 -124z"/>
<path id='brick75' d="M3590 4695 l0 -125 410 0 411 0 -3 123 -3 122 -407 3 -408 2 0 -125z"/>
<path id='brick74' d="M4456 4813 c-3 -3 -6 -60 -6 -125 l0 -118 410 0 410 0 -1 119 c0 89
-4 121 -14 125 -19 7 -791 7 -799 -1z"/>
<path id='brick73' d="M5316 4813 c-3 -4 -6 -60 -6 -125 l0 -118 410 0 411 0 -3 123 -3 122
-401 2 c-221 1 -404 -1 -408 -4z"/>
<path id='brick72' d="M6170 4695 l0 -125 410 0 411 0 -3 123 -3 122 -407 2 -408 2 0 -124z"/>
<path id='brick71' d="M7035 4812 c-3 -3 -5 -59 -5 -124 l0 -118 405 0 406 0 -3 123 -3 122
-398 1 c-218 0 -399 -2 -402 -4z"/>
<path id='brick70' d="M7893 4812 c-5 -4 -9 -56 -9 -124 l1 -118 408 0 408 0 -3 123 -3 122
-396 2 c-218 1 -400 -2 -406 -5z"/>
<path id='brick69' d="M8755 4806 c-2 -6 -6 -62 -9 -123 l-5 -113 400 0 399 0 0 124 0 125
-391 -1 c-284 0 -391 -3 -394 -12z"/>
<path id='brick68' d="M2943 4425 c86 -58 159 -105 162 -105 3 0 5 47 5 105 l0 105 -162 0
-162 0 157 -105z"/>
<path id='brick67' d="M3160 4410 l0 -120 405 0 405 0 0 120 0 120 -405 0 -405 0 0 -120z"/>
<path id='brick66' d="M4017 4498 c-3 -18 -6 -72 -7 -120 l0 -88 410 0 410 0 0 120 0 120
-404 0 -404 0 -5 -32z"/>
<path id='brick65' d="M4870 4410 l0 -120 410 0 410 0 0 120 0 120 -410 0 -410 0 0 -120z"/>
<path id='brick64' d="M5733 4413 l2 -118 408 -3 407 -2 0 120 0 120 -409 0 -410 0 2 -117z"/>
<path id='brick63' d="M6590 4410 l0 -120 410 0 410 0 0 120 0 120 -410 0 -410 0 0 -120z"/>
<path id='brick62' d="M7450 4410 l0 -120 410 0 410 0 0 120 0 120 -410 0 -410 0 0 -120z"/>
<path id='brick61' d="M8310 4410 l0 -120 410 0 410 0 0 120 0 120 -410 0 -410 0 0 -120z"/>
<path id='brick60' d="M9170 4410 l0 -120 185 0 185 0 0 120 0 120 -185 0 -185 0 0 -120z"/>
<path id='brick59' d="M3221 4240 c0 -4 168 -117 286 -192 l43 -28 0 113 0 112 -165 0 c-91
0 -165 -2 -164 -5z"/>
<path id='brick58' d="M3590 4123 l0 -123 410 0 410 0 0 125 0 125 -410 -3 -410 -2 0 -122z"/>
<path id='brick57' d="M4450 4122 l0 -122 408 2 407 3 0 120 0 120 -407 0 -408 0 0 -123z"/>
<path id='brick56' d="M5310 4122 l0 -122 408 2 407 3 0 118 0 119 -408 1 -407 2 0 -123z"/>
<path id='brick55' d="M6170 4122 l0 -122 408 2 407 3 3 109 c2 69 -1 113 -8 120 -8 8 -137
11 -410 11 l-400 0 0 -123z"/>
<path id='brick54' d="M7030 4123 l0 -123 405 0 405 0 0 123 0 122 -405 0 -405 0 0 -122z"/>
<path id='brick53' d="M7886 4240 c-1 -3 -2 -57 -2 -120 l1 -115 408 -3 407 -2 0 124 0 125
-406 -2 c-223 -1 -407 -4 -408 -7z"/>
<path id='brick53' d="M8748 4240 c-1 -3 -2 -58 -2 -122 l-1 -118 398 0 397 0 0 123 0 122
-395 0 c-217 0 -396 -2 -397 -5z"/>
<path id='brick52' d="M3792 3857 c84 -57 159 -106 166 -111 9 -5 12 18 12 103 l0 111 -166
0 -166 0 154 -103z"/>
<path id='brick51' d="M4016 3951 c-6 -10 -5 -200 2 -218 3 -10 94 -13 408 -13 l404 0 0
120 0 120 -404 0 c-223 0 -407 -4 -410 -9z"/>
<path id='brick50' d="M4874 3946 c-3 -8 -4 -60 -2 -117 l3 -104 408 -3 407 -2 0 120 0 120
-405 0 c-338 0 -407 -2 -411 -14z"/>
<path id='brick49' d="M5736 3944 c-3 -9 -6 -63 -6 -120 l0 -104 410 0 410 0 0 120 0 120
-404 0 c-359 0 -405 -2 -410 -16z"/>
<path id='brick48' d="M6590 3840 l0 -120 410 0 410 0 0 120 0 120 -410 0 -410 0 0 -120z"/>
<path id='brick47' d="M7450 3840 l0 -120 410 0 410 0 0 120 0 120 -410 0 -410 0 0 -120z"/>
<path id='brick46' d="M8310 3840 l0 -120 410 0 410 0 0 120 0 120 -410 0 -410 0 0 -120z"/>
<path id='brick45' d="M9170 3840 l0 -120 185 0 185 0 0 120 0 120 -185 0 -185 0 0 -120z"/>
<path id='brick44' d="M4086 3661 c14 -13 314 -211 319 -211 3 0 5 50 5 110 l0 110 -167 0
c-95 0 -163 -4 -157 -9z"/>
<path id='brick43' d="M4450 3550 l0 -120 404 0 c359 0 405 2 410 16 8 20 8 138 0 187 l-7
37 -403 0 -404 0 0 -120z"/>
<path id='brick42' d="M5310 3550 l0 -120 405 0 405 0 6 24 c3 14 4 67 2 118 l-3 93 -407 3
-408 2 0 -120z"/>
<path id='brick41' d="M6170 3550 l0 -120 410 0 411 0 -3 118 -3 117 -407 3 -408 2 0 -120z"/>
<path id='brick40' d="M7030 3550 l0 -120 405 0 405 0 0 120 0 120 -405 0 -405 0 0 -120z"/>
<path id='brick39' d="M7884 3550 l1 -120 408 0 407 0 0 120 0 120 -409 0 -408 0 1 -120z"/>
<path id='brick38' d="M8743 3550 l-2 -120 399 0 400 0 0 120 0 120 -397 0 -398 0 -2 -120z"/>
<path id='brick37' d="M4501 3386 c2 -2 77 -54 167 -114 l162 -110 0 114 0 114 -167 0 c-91
0 -164 -2 -162 -4z"/>
<path id='brick36' d="M4875 3360 c-9 -43 -2 -204 10 -212 12 -9 766 -11 789 -2 13 5 16 26
16 125 l0 119 -404 0 -404 0 -7 -30z"/>
<path id='brick35' d="M5735 3380 c-3 -5 -5 -59 -4 -119 1 -83 5 -111 15 -115 8 -3 191 -4
406 -3 l393 2 3 123 3 122 -405 0 c-251 0 -407 -4 -411 -10z"/>
<path id='brick34' d="M6592 3268 l3 -123 405 0 405 0 3 123 3 122 -411 0 -411 0 3 -122z"/>
<path id='brick33' d="M7450 3265 l0 -125 410 0 410 0 0 125 0 125 -410 0 -410 0 0 -125z"/>
<path id='brick32' d="M8312 3268 l3 -123 405 0 405 0 3 123 3 122 -411 0 -411 0 3 -122z"/>
<path id='brick31' d="M9172 3268 l3 -123 183 -3 182 -2 0 125 0 125 -185 0 -186 0 3 -122z"/>
<path id='brick30' d="M4932 3094 c11 -10 322 -214 327 -214 9 0 14 175 6 200 -6 19 -14 20
-172 20 -92 0 -164 -2 -161 -6z"/>
<path id='brick29' d="M5310 2980 l0 -120 408 2 407 3 0 115 0 115 -407 3 -408 2 0 -120z"/>
<path id='brick28' d="M6170 2980 l0 -120 408 2 407 3 3 118 3 117 -411 0 -410 0 0 -120z"/>
<path id='brick27' d="M7030 2980 l0 -120 405 0 405 0 0 120 0 120 -405 0 -405 0 0 -120z"/>
<path id='brick26' d="M7889 3088 c-4 -41 -5 -196 -2 -210 4 -17 32 -18 409 -18 l404 0 0
120 0 120 -405 0 c-317 0 -405 -3 -406 -12z"/>
<path id='brick25' d="M8745 2980 l-1 -120 398 0 398 0 0 120 0 120 -398 0 -397 0 0 -120z"/>
<path id='brick24' d="M5371 2802 c20 -16 267 -181 307 -206 9 -5 12 20 12 108 l0 116 -171
0 c-169 0 -171 0 -148 -18z"/>
<path id='brick23' d="M5734 2806 c-3 -7 -4 -62 -2 -122 l3 -109 407 0 408 0 0 123 0 122
-405 0 c-332 0 -407 -2 -411 -14z"/>
<path id='brick22' d="M6590 2698 l0 -123 410 0 410 0 0 123 0 122 -410 0 -410 0 0 -122z"/>
<path id='brick21' d="M7450 2697 l0 -124 410 1 410 1 0 123 0 122 -410 0 -410 0 0 -123z"/>
<path id='brick20' d="M8310 2698 l0 -123 410 -1 410 -1 0 124 0 123 -410 0 -410 0 0 -122z"/>
<path id='brick19' d="M9170 2696 l0 -124 185 1 185 2 0 123 0 122 -185 0 -185 0 0 -124z"/>
<path id='brick18' d="M5948 2415 c95 -63 174 -115 176 -115 2 0 4 52 5 115 l2 115 -178 0
-177 0 172 -115z"/>
<path id='brick17' d="M6170 2410 l0 -120 408 2 407 3 3 118 3 117 -410 0 -411 0 0 -120z"/>
<path id='brick16' d="M7030 2410 l0 -120 405 0 405 0 0 120 0 120 -405 0 -405 0 0 -120z"/>
<path id='brick15' d="M7886 2413 l2 -118 406 -3 406 -2 0 120 0 120 -407 0 -408 0 1 -117z"/>
<path id='brick14' d="M8745 2410 l0 -120 398 0 397 0 0 120 0 120 -397 0 -398 0 0 -120z"/>
<path id='brick13' d="M6211 2240 c0 -5 314 -213 330 -218 5 -2 9 43 9 110 l0 113 -170 0
c-94 0 -170 -2 -169 -5z"/>
<path id='brick12' d="M6590 2124 l0 -123 410 1 410 1 0 123 0 123 -410 -1 -410 -1 0 -123z"/>
<path id='brick11' d="M7450 2122 l0 -123 410 3 410 3 0 121 0 121 -410 -1 -410 -1 0 -123z"/>
<path id='brick10' d="M8310 2125 l0 -120 408 1 407 0 3 120 3 119 -411 0 -410 0 0 -120z"/>
<path id='brick9' d="M9172 2125 l3 -120 183 -3 182 -2 0 122 0 123 -185 0 -186 0 3 -120z"/>
<path id='brick8' d="M6645 1951 c23 -21 325 -221 335 -221 7 0 10 38 8 113 l-3 112 -175
3 c-107 1 -171 -1 -165 -7z"/>
<path id='brick8' d="M7030 1840 l0 -120 405 0 405 0 0 120 0 120 -405 0 -405 0 0 -120z"/>
<path id='brick8' d="M7889 1953 c-5 -26 -6 -201 -2 -215 4 -17 32 -18 409 -18 l404 0 0
120 0 120 -405 0 c-223 0 -406 -3 -406 -7z"/>
<path id='brick7' d="M8745 1840 l0 -120 398 0 397 0 0 120 0 120 -398 0 -397 0 0 -120z"/>
<path id='brick6' d="M7067 1669 c4 -4 82 -58 173 -119 l165 -110 3 107 c1 59 1 112 -2
119 -4 10 -46 13 -176 12 -94 0 -168 -4 -163 -9z"/>
<path id='brick5' d="M7457 1673 c-4 -3 -7 -60 -7 -125 l0 -118 410 0 410 0 0 125 0 125
-403 0 c-222 0 -407 -3 -410 -7z"/>
<path id='brick4' d="M8317 1673 c-4 -3 -7 -60 -7 -125 l0 -118 410 0 411 0 -3 123 -3 122
-401 3 c-220 1 -403 -1 -407 -5z"/>
<path id='brick3' d="M9177 1673 c-4 -3 -7 -60 -7 -125 l0 -118 185 0 185 0 0 125 0 125
-178 0 c-98 0 -182 -3 -185 -7z"/>
<path id='brick3' d="M7511 1372 c13 -11 93 -65 177 -121 l152 -101 0 120 0 120 -176 0
c-174 0 -176 0 -153 -18z"/>
<path id='brick2' d="M7884 1265 l0 -125 408 0 408 0 0 125 0 125 -407 0 -408 0 -1 -125z"/>
<path id='brick1' d="M8745 1265 l0 -125 398 0 397 0 0 125 0 125 -397 0 -398 0 0 -125z"/>
</g>
</g>
</svg>
